<svg width="20" height="21" viewBox="0 0 20 21" fill="none" xmlns="http://www.w3.org/2000/svg">
<path d="M10.75 3.375C10.75 3.17609 10.671 2.98532 10.5303 2.84467C10.3897 2.70402 10.1989 2.625 10 2.625C9.80108 2.625 9.61032 2.70402 9.46967 2.84467C9.32901 2.98532 9.25 3.17609 9.25 3.375V11.989L6.295 8.86C6.22798 8.78602 6.14687 8.72616 6.05642 8.68393C5.96597 8.6417 5.868 8.61795 5.76826 8.61407C5.66851 8.6102 5.56899 8.62627 5.47554 8.66136C5.38208 8.69644 5.29657 8.74983 5.22402 8.81839C5.15147 8.88695 5.09333 8.9693 5.05302 9.06062C5.0127 9.15194 4.99103 9.25039 4.98925 9.35019C4.98748 9.45 5.00565 9.54916 5.0427 9.64185C5.07974 9.73454 5.13492 9.81891 5.205 9.89L9.455 14.39C9.52509 14.4641 9.60958 14.5232 9.70329 14.5636C9.797 14.6039 9.89796 14.6248 10 14.6248C10.102 14.6248 10.203 14.6039 10.2967 14.5636C10.3904 14.5232 10.4749 14.4641 10.545 14.39L14.795 9.89C14.9267 9.74461 14.9962 9.5534 14.9886 9.35737C14.981 9.16135 14.8968 8.97611 14.7543 8.84137C14.6117 8.70663 14.422 8.63313 14.2258 8.63661C14.0297 8.64009 13.8427 8.72029 13.705 8.86L10.75 11.989V3.375Z" fill="url(#paint0_linear_0_26)"/>
<path d="M3.5 13.375C3.5 13.1761 3.42098 12.9853 3.28033 12.8447C3.13968 12.704 2.94891 12.625 2.75 12.625C2.55109 12.625 2.36032 12.704 2.21967 12.8447C2.07902 12.9853 2 13.1761 2 13.375V15.875C2 16.6043 2.28973 17.3038 2.80546 17.8195C3.32118 18.3353 4.02065 18.625 4.75 18.625H15.25C15.9793 18.625 16.6788 18.3353 17.1945 17.8195C17.7103 17.3038 18 16.6043 18 15.875V13.375C18 13.1761 17.921 12.9853 17.7803 12.8447C17.6397 12.704 17.4489 12.625 17.25 12.625C17.0511 12.625 16.8603 12.704 16.7197 12.8447C16.579 12.9853 16.5 13.1761 16.5 13.375V15.875C16.5 16.565 15.94 17.125 15.25 17.125H4.75C4.06 17.125 3.5 16.565 3.5 15.875V13.375Z" fill="url(#paint1_linear_0_26)"/>
<defs>
<linearGradient id="paint0_linear_0_26" x1="4.98914" y1="8.62488" x2="14.9891" y2="8.62488" gradientUnits="userSpaceOnUse">
<stop stop-color="#C84E89"/>
<stop offset="1" stop-color="#F15F79"/>
</linearGradient>
<linearGradient id="paint1_linear_0_26" x1="2" y1="15.625" x2="18" y2="15.625" gradientUnits="userSpaceOnUse">
<stop stop-color="#C84E89"/>
<stop offset="1" stop-color="#F15F79"/>
</linearGradient>
</defs>
</svg>